HIERARCHY
ROOT Hips
{
	OFFSET 0.000000 0.000000 0.000000
	CHANNELS 6 Xposition Yposition Zposition Xrotation Yrotation Zrotation
	JOINT LeftUpLeg_virtual
	{
		OFFSET 0.000000 0.000000 0.000000
		CHANNELS 3 Xrotation Yrotation Zrotation
		JOINT LeftUpLeg
		{
			OFFSET 11.394100 -6.187798 -0.413800
			CHANNELS 3 Xrotation Yrotation Zrotation
			JOINT LeftLeg
			{
				OFFSET 0.430247 -32.302673 3.732800
				CHANNELS 3 Xrotation Yrotation Zrotation
				JOINT LeftFoot
				{
					OFFSET -0.430247 -48.264931 -6.423300
					CHANNELS 3 Xrotation Yrotation Zrotation
					JOINT LeftToeBase
					{
						OFFSET 4.230900 -16.068199 23.438400
						CHANNELS 3 Xrotation Yrotation Zrotation
						JOINT LeftToe_End
						{
							OFFSET 4.510700 0.695400 19.974600
							CHANNELS 3 Xrotation Yrotation Zrotation
							End Site
							{
								OFFSET 0 0 0
							}
						}
					}
				}
			}
		}
	}
	JOINT RightUpLeg_virtual
	{
		OFFSET 0.000000 0.000000 0.000000
		CHANNELS 3 Xrotation Yrotation Zrotation
		JOINT RightUpLeg
		{
			OFFSET -11.333700 -6.187798 -0.413800
			CHANNELS 3 Xrotation Yrotation Zrotation
			JOINT RightLeg
			{
				OFFSET -0.430392 -32.302628 3.733000
				CHANNELS 3 Xrotation Yrotation Zrotation
				JOINT RightFoot
				{
					OFFSET 0.430392 -48.264973 -6.423500
					CHANNELS 3 Xrotation Yrotation Zrotation
					JOINT RightToeBase
					{
						OFFSET -4.230900 -16.068199 23.438400
						CHANNELS 3 Xrotation Yrotation Zrotation
						JOINT RightToe_End
						{
							OFFSET -4.510700 0.695400 19.974600
							CHANNELS 3 Xrotation Yrotation Zrotation
							End Site
							{
								OFFSET 0 0 0
							}
						}
					}
				}
			}
		}
	}
	JOINT Spine_virtual
	{
		OFFSET 0.000000 0.000000 0.000000
		CHANNELS 3 Xrotation Yrotation Zrotation
		JOINT Spine
		{
			OFFSET -0.002400 12.777504 0.315300
			CHANNELS 3 Xrotation Yrotation Zrotation
			JOINT Spine1
			{
				OFFSET -0.002067 5.816869 0.032633
				CHANNELS 3 Xrotation Yrotation Zrotation
				JOINT Spine1_split
				{
					OFFSET -0.002067 5.816869 0.032633
					CHANNELS 3 Xrotation Yrotation Zrotation
					JOINT Spine2
					{
						OFFSET -0.002067 5.816869 0.032633
						CHANNELS 3 Xrotation Yrotation Zrotation
						JOINT Neck_virtual
						{
							OFFSET 0.000000 0.000000 0.000000
							CHANNELS 3 Xrotation Yrotation Zrotation
							JOINT Neck
							{
								OFFSET -0.003700 21.199493 -0.826900
								CHANNELS 3 Xrotation Yrotation Zrotation
								JOINT Head
								{
									OFFSET 0.000000 20.442200 4.834800
									CHANNELS 3 Xrotation Yrotation Zrotation
									JOINT HeadTop_End
									{
										OFFSET 0.000000 34.668396 4.968400
										CHANNELS 3 Xrotation Yrotation Zrotation
										End Site
										{
											OFFSET 0 0 0
										}
									}
								}
							}
						}
						JOINT LeftShoulder_virtual
						{
							OFFSET 0.000000 0.000000 0.000000
							CHANNELS 3 Xrotation Yrotation Zrotation
							JOINT LeftShoulder
							{
								OFFSET 3.288150 8.794197 -1.372250
								CHANNELS 3 Xrotation Yrotation Zrotation
								JOINT LeftShoulder_split
								{
									OFFSET 3.288150 8.794197 -1.372250
									CHANNELS 3 Xrotation Yrotation Zrotation
									JOINT LeftArm
									{
										OFFSET 11.953299 -2.279007 -0.146200
										CHANNELS 3 Xrotation Yrotation Zrotation
										JOINT LeftForeArm
										{
											OFFSET 18.448900 0.000000 0.000000
											CHANNELS 3 Xrotation Yrotation Zrotation
											JOINT LeftHand
											{
												OFFSET 29.527798 0.000000 0.000000
												CHANNELS 3 Xrotation Yrotation Zrotation
												End Site
												{
													OFFSET 0 0 0
												}
											}
										}
									}
								}
							}
						}
						JOINT RightShoulder_virtual
						{
							OFFSET 0.000000 0.000000 0.000000
							CHANNELS 3 Xrotation Yrotation Zrotation
							JOINT RightShoulder
							{
								OFFSET -3.249400 8.794197 -1.372250
								CHANNELS 3 Xrotation Yrotation Zrotation
								JOINT RightShoulder_split
								{
									OFFSET -3.249400 8.794197 -1.372250
									CHANNELS 3 Xrotation Yrotation Zrotation
									JOINT RightArm
									{
										OFFSET -11.953299 -2.279007 -0.146200
										CHANNELS 3 Xrotation Yrotation Zrotation
										JOINT RightForeArm
										{
											OFFSET -18.448900 0.000000 0.000000
											CHANNELS 3 Xrotation Yrotation Zrotation
											JOINT RightHand
											{
												OFFSET -29.527802 0.000000 0.000000
												CHANNELS 3 Xrotation Yrotation Zrotation
												End Site
												{
													OFFSET 0 0 0
												}
											}
										}
									}
								}
							}
						}
					}
				}
			}
		}
	}
}
MOTION
Frames: 4
Frame Time: 0.03333333
-0.966193 88.151093 0.595203 0.000000 0.000000 0.000000 -0.640255 -61.736004 3.887614 -36.435555 11.185206 24.009795 40.955781 -4.214029 -8.294243 -4.938150 -4.597319 -7.132060 0.505360 1.408842 2.415625 0.000000 0.000000 0.000000 -3.807019 -60.527497 2.453137 -33.922654 -11.773765 -23.860515 41.053969 -0.324453 -8.769719 -12.991126 4.516271 22.999453 0.197634 -0.854500 -2.242341 0.000000 0.000000 0.000000 -3.776665 -60.865086 0.544103 12.480453 2.364934 -2.829395 8.155572 0.660484 -5.538400 0.244302 -0.158238 1.195905 0.000000 0.000000 0.000000 7.994486 0.313559 -4.332479 -20.931518 20.788635 9.492897 3.000135 27.044909 -2.094299 0.000000 0.000000 0.000000 9.960532 0.276268 -4.909050 -5.223217 -16.249399 -1.689826 -1.914085 -3.819093 1.186927 -23.580665 9.465205 -32.445984 4.213506 -42.237705 0.304469 0.000000 0.000000 0.000000 9.389505 0.571233 -5.405164 -5.358508 14.190398 1.639212 3.730479 -2.925036 3.436642 -32.518148 -22.507236 35.351355 164.856178 69.362197 -161.808903 0.000000 0.000000 0.000000 
-1.377116 87.888367 0.905811 0.000000 0.000000 0.000000 -0.968680 -61.446902 3.550951 -36.135205 11.681120 24.117997 41.451230 -4.870007 -8.162844 -5.949002 -4.646339 -7.363919 0.005671 1.320103 2.665356 0.000000 0.000000 0.000000 -4.223083 -60.357186 1.951264 -33.477202 -11.334404 -23.856150 42.250741 -0.359012 -8.815674 -13.983875 4.215381 22.163617 1.453332 -0.877062 -2.039495 0.000000 0.000000 0.000000 -3.932903 -60.834794 0.470226 12.491248 2.164677 -2.778345 7.907088 0.648178 -5.545846 -0.602370 -0.848872 1.743524 0.000000 0.000000 0.000000 7.729950 0.300937 -4.338126 -20.896779 20.206331 9.802277 3.306062 26.037233 -1.996796 0.000000 0.000000 0.000000 9.685121 0.289628 -4.900551 -5.210822 -15.981673 -1.651904 -0.393653 -5.151033 0.927473 -24.965115 9.390820 -33.528999 5.486756 -41.929097 1.417673 0.000000 0.000000 0.000000 8.997833 0.562250 -5.362540 -5.449013 14.123965 1.551636 4.993944 -2.531432 1.630946 -30.891945 -21.776262 35.306853 167.043573 66.129236 -164.001475 0.000000 0.000000 0.000000 
-2.091390 87.603157 1.318157 0.000000 0.000000 0.000000 -2.175699 -61.139940 2.280804 -35.538465 11.866240 24.339552 42.538374 -5.773328 -7.960097 -7.700613 -4.337123 -7.521208 -0.561515 1.304629 2.852689 0.000000 0.000000 0.000000 -5.047591 -60.053168 0.804769 -31.881588 -10.731751 -23.904610 43.581309 -0.142102 -8.927006 -15.213514 3.796851 21.987380 1.509957 -1.108547 -1.944493 0.000000 0.000000 0.000000 -4.815495 -60.523153 -0.461381 12.346798 2.045453 -2.508471 7.525104 0.692317 -5.315062 -0.770117 -0.924394 2.114882 0.000000 0.000000 0.000000 7.264646 0.316445 -4.193190 -19.954126 19.165553 10.075420 3.315636 24.500609 -1.428545 0.000000 0.000000 0.000000 9.165082 0.345229 -4.655017 -5.142704 -14.842568 -1.123554 0.538218 -5.675926 0.349098 -24.983739 9.714908 -32.827098 6.694010 -44.569501 3.018013 0.000000 0.000000 0.000000 8.395120 0.533567 -5.108997 -5.489881 12.847116 0.682906 6.620989 -2.248401 0.472773 -25.379750 -20.268115 35.653365 163.158644 62.419002 -160.531002 0.000000 0.000000 0.000000 
-3.001648 87.526108 1.762100 0.000000 0.000000 0.000000 -4.024071 -60.824337 0.333649 -34.411398 11.757257 24.425281 43.476135 -6.768047 -7.679138 -9.641842 -3.764554 -7.522122 -1.343915 1.350002 3.021617 0.000000 0.000000 0.000000 -6.143794 -59.479637 -0.742435 -29.105738 -10.274813 -24.027702 44.167565 0.212051 -9.034792 -16.336925 3.231346 22.296555 0.743234 -1.470473 -1.914074 0.000000 0.000000 0.000000 -6.066816 -59.844321 -1.967222 12.097316 1.999787 -2.114029 7.063016 0.767261 -4.879681 -0.125513 -0.401033 2.264600 0.000000 0.000000 0.000000 6.670397 0.373591 -3.892256 -18.196546 17.821164 10.298547 3.136783 22.798847 -0.630396 0.000000 0.000000 0.000000 8.427787 0.454047 -4.167628 -5.095130 -12.756531 -0.154343 0.898329 -5.486291 0.007548 -23.277918 11.021262 -30.248200 7.671293 -50.282009 4.849826 0.000000 0.000000 0.000000 7.642219 0.493422 -4.663073 -5.583069 10.369031 -0.819859 7.873790 -2.080764 -0.269037 -17.509434 -18.447193 36.490231 155.596299 59.441388 -153.843345 0.000000 0.000000 0.000000 
